<?xml version="1.0" encoding="UTF-8"?>
<svg id="Layer_2" data-name="Layer 2" xmlns="http://www.w3.org/2000/svg" viewBox="0 0 422.27 557.85">
  <defs>
    <style>
      .cls-1 {
        fill: #fff;
      }

      .cls-2 {
        fill: none;
        stroke: #fff;
        stroke-miterlimit: 10;
      }
    </style>
  </defs>
  <g id="Layer_1-2" data-name="Layer 1">
    <g>
      <path class="cls-1" d="M422.27,0v21h-101v108c31.71,4.2,63.28,11.07,93.07,22.61l-5.07,123.39-7.12-.58c-8.98-46.55-33.88-93-80.88-109.42v354c26-6.55,53.86-21.52,73.53-39.97,2.97-2.79,12.66-14.72,14.49-15.5,2.06-.88,7.66-1.51,7.59,1.53l-11.83,63.22-2.41,2.59c-98.12,39.38-237.9,46.22-303.17-52.55-44.06-66.67-45.88-187.64-7.36-256.98,23.77-42.8,67.54-75,115.17-86.33V62h-101v-21h133.5l1.5,1.5v85.5l46-2V0h135ZM287.27,157h-46v142c14.83,3.03,35.06,14.51,38.11-8.89l3.9.4c-1.12,27.03-22.76,24.46-42.01,16.49v219h46V157ZM207.27,165c-45.12,13.91-79.5,52.01-94.27,96.23-12.95,38.77-15.34,90.78-8.41,130.96,9.75,56.51,44.48,111.87,102.69,126.81V165Z"/>
      <path class="cls-1" d="M91.27,511.99c-32.1-11.67-56.57-41.32-70.86-71.63-38.47-81.59-24.82-204.76,60.36-251.35,1.68,1.05-.44,2.19-1.01,3-37.5,53.54-47.01,114.85-42.49,179.49,3.55,50.8,18.19,103.07,53.99,140.5Z"/>
      <path class="cls-2" d="M207.27,165v354c-58.21-14.95-92.94-70.3-102.69-126.81-6.93-40.17-4.53-92.19,8.41-130.96,14.77-44.22,49.15-82.32,94.27-96.23Z"/>
      <path class="cls-2" d="M287.27,157v369h-46v-219c19.25,7.97,40.89,10.54,42.01-16.49l-3.9-.4c-3.05,23.39-23.28,11.92-38.11,8.89v-142h46Z"/>
    </g>
  </g>
</svg>